# xmcd CD database file
#
# Track frame offsets:
#	151
#	87725
#	138220
#
# Disc length: 3178 seconds
#
# Revision: 0
# Processed by: cddbd v1.5.2PL0 Copyright (c) Steve Scherf et al.
# Submitted via: CDex 1.70beta2
#
DISCID=220c6803
DTITLE=Rova Saxophone Quartet - Resistance
DYEAR=2003
DGENRE=Jazz
TTITLE0=Resistance (Rova)
TTITLE1=The Drift (Larry Ochs)
TTITLE2=The M'ad Din - Á la mémoire de Cerno Bokar Saalif Taal (Wadada Leo Smith)
EXTD=YEAR: 2003
EXTT0=
EXTT1=
EXTT2=
PLAYORDER=
